<svg xmlns="http://www.w3.org/2000/svg" xmlns:xlink="http://www.w3.org/1999/xlink" id="Layer_1" x="0px" y="0px" viewBox="0 0 1306 698.2" style="enable-background:new 0 0 1306 698.2;" xml:space="preserve"><style type="text/css">	.st0{fill:#009690;}	.st1{fill:#333333;}</style><g>	<path class="st0" d="M138.8,424.5c5-0.3,9-0.4,12.9-0.7c4.6-0.4,9.1-1,13.7-1.4c13.5-1.1,27.1-2.3,40.6-3.3  c8.7-0.7,17.4-1.2,26.1-1.9c9.6-0.7,19.1-1.6,28.7-2.4c4.3-0.4,8.6-0.6,12.8-1c13.4-1.1,26.8-2.2,40.2-3.4  c10.8-0.9,21.7-1.8,32.5-2.8c9.5-0.9,19.1-2,28.6-3.1c7.5-0.9,15.1-1.8,22.6-2.8c1.6-0.2,3.4-0.9,4.6-2  c30.4-26.8,56.4-57,74.2-93.8c8.8-18.2,14.9-37.2,17.3-57.4c1.4-12,1.1-24-0.4-36c-2.2-16.7-6.2-32.9-13.1-48.3  c-8.3-18.6-19.7-35.2-32.9-50.6c-17-19.8-37.3-35.6-59.2-49.3c-34.3-21.5-71-37.7-110.6-47c-12.3-2.9-24.7-5.1-37.3-5.8  c-5.3-0.3-10.6-0.5-15.9-0.9c-1.1-0.1-2.3-0.1-3.4-0.5c-2.6-0.9-4.1-3.2-3.7-5.6c0.4-2.6,2.1-4.4,5-4.4c5.7-0.1,11.5-0.3,17.2,0.2  c15,1.3,29.8,3.6,44.4,7.2c18.4,4.5,36.3,10.6,53.7,17.9c22.1,9.3,43.2,20.6,63,34.2c31.1,21.3,57.9,46.7,78.1,78.9  c13.2,21,22.3,43.6,25.6,68.3c3.3,24.5,0.9,48.5-6.2,72.2c-10.5,34.6-28.7,64.9-52.1,92.1c-6.7,7.8-14,15.1-21,22.7  c-0.9,1-1.9,2.1-2.7,3c0.9,1.9,2.3,1.5,3.5,1.3c12.4-2,24.9-3.7,37.3-6c15.2-2.8,30.3-6.2,45.4-9.3c0.6-0.1,1.1-0.2,1.7-0.4  c3.5-1,3.5-1.1,3.7-4.7c0.3-7.4,0.4-14.9,2.5-22.1c6.9-23.4,21.3-39.6,45.3-46.1c6.6-1.8,13.3-2.2,20-0.5c6,1.5,11.2,4.3,14.5,9.9  c2,3.4,2.7,6.9,2.1,10.7c-1.1,6.6-3.4,12.6-7.9,17.8c-6.6,7.6-14.1,14.3-22.4,20c-11.4,8-23.6,14.6-36.1,20.9c-1,0.5-2.1,1-3.1,1.6  c-2.6,1.5-3,2.1-1.9,4.8c1.9,4.5,4,8.9,6.3,13.1c3.9,7.1,7.1,14.4,9.2,22.2c2.5,9.3,2.4,18.5-1.8,27.3  c-6.2,12.9-12.6,25.7-19.1,38.5c-9.3,18.2-18.9,36.3-28.3,54.6c-1.6,3.2-2.8,6.6-3.8,10c-0.3,1.2,0,3,0.8,3.8  c0.5,0.6,2.5,0.5,3.5,0.1c2.4-1,4.6-2.3,6.8-3.6c5.8-3.2,11.4-6.6,17.3-9.6c4.2-2.2,8.9-2.9,13.7-3.1c11.9-0.4,23.7-1.1,35.6-1.6  c7.6-0.3,15.2-0.7,22.8-0.9c10.2-0.4,20.3-0.6,30.5-0.9c22.9-0.7,45.8-1.3,68.7-2c7.3-0.2,14.6-0.5,21.9-0.6  c20.1-0.4,40.1-0.9,60.2-1.1c34.4-0.4,68.8-0.8,103.2-0.9c50.3-0.1,100.6,0.1,150.9,0.3c19.8,0.1,39.6,0.5,59.3,0.9  c15.3,0.3,30.7,0.5,46,0.9c19.3,0.5,38.7,0.8,58,1.8c20.9,1,41.7,2.5,62.4,5.9c3.9,0.7,7.9,1.4,11.8,2.4c3.8,1,6,6.9,3.9,10.2  c-1.2,1.9-3,1.4-4.7,1.1c-3.5-0.5-7-1.3-10.6-1.8c-11.5-1.4-23-2.9-34.5-4.1c-16.7-1.7-33.4-2.5-50.2-2.7  c-11.2-0.1-22.3-0.6-33.5-0.8c-16.6-0.3-33.2-0.6-49.9-0.9c-14-0.3-28.1-0.7-42.1-0.8c-74.8-0.3-149.6-0.6-224.5-0.7  c-23.2,0-46.4,0.5-69.6,0.9c-13,0.2-26.1,0.5-39.1,0.8c-11.2,0.3-22.3,0.5-33.5,0.8c-18.2,0.5-36.4,1.1-54.5,1.7  c-15.2,0.5-30.3,1.1-45.5,1.7c-13.5,0.5-26.9,1.3-40.3,1.7c-10,0.3-19.1,3-27.4,8.7c-3.4,2.4-7.1,4.4-10.7,6.3  c-3.1,1.7-6.4,2.3-10,2.1c-4.8-0.3-8.6-3.4-8.8-8.3c-0.1-3.5,0.2-7.3,1.4-10.5c3.2-8.4,6.7-16.8,10.8-24.8  c9.7-18.7,19.9-37.1,29.6-55.8c4.4-8.5,8.1-17.4,12.1-26.1c2.7-5.9,2.8-12,0.8-18c-1.9-5.7-4-11.4-6.7-16.7  c-3.5-6.9-7.3-13.7-9.6-21.1c-0.2-0.7-0.6-1.3-1.2-2.3c-1.5,0.2-3,0.3-4.5,0.6c-25.1,5.8-50.4,10.6-75.8,14.5  c-7.8,1.2-15.5,2.3-23.3,3.4c-3.8,0.5-7,1.7-10,4.3c-17.3,14.7-35.6,28-54.7,40.2c-25.3,16.2-51.8,30.1-79.2,42.2  c-23.3,10.3-47.1,19.4-71.5,27.1c-24,7.6-48.5,13.6-73.4,17.5c-17.3,2.7-34.7,4.7-52.2,3.6c-15.6-1-31.1-3-45.1-10.9  c-7.1-4-13.1-9.2-17.8-15.9c-6.4-9.3-7.5-19.4-4.6-30c2.9-10.2,8.8-18.5,16.5-25.7c12.9-12,28-20.4,44.5-26.1  c14-4.8,28.4-7.7,43.1-9.4c5.3-0.6,10.5-1.3,15.8-1.7c2.6-0.2,3.7-1.8,4.7-3.8c3.3-6.4,6.6-12.7,9.9-19.1  c15.7-29.6,31.2-59.4,47.1-88.9c18.9-35.1,38-70,57.3-104.8c7.6-13.6,16-26.8,24.1-40.2c1.2-2,2.5-3.8,4-5.6c2-2.6,3.8-2.9,6.3-1.5  c2.8,1.6,3.8,4.1,2.7,6.9c-0.3,0.8-0.9,1.5-1.3,2.2c-7.9,13-15.9,25.9-23.8,38.9c-4.2,6.8-8.3,13.7-12.3,20.7  c-1.6,2.8-2.8,6-4.4,8.9c-2.8,5.2-5.7,10.2-8.5,15.4c-4.3,7.8-8.5,15.5-12.8,23.3c-3.2,5.9-6.3,11.8-9.5,17.8  c-5.1,9.4-10.2,18.9-15.3,28.3c-4.6,8.6-9.1,17.2-13.7,25.8c-11.7,22.3-23.5,44.6-35.2,66.9C141,419.4,140.2,421.4,138.8,424.5z   M381.5,416.6c-0.2-0.4-0.4-0.9-0.6-1.3c-3.3,0.2-6.7,0.3-10,0.7c-10.1,1-20.2,2.2-30.3,3.1c-7.8,0.8-15.7,1.3-23.5,2  c-13,1.1-25.9,2.2-38.9,3.3c-4.1,0.4-8.3,0.7-12.4,1.1c-8.7,0.8-17.4,1.6-26.1,2.3c-9.6,0.7-19.1,1.2-28.7,2  c-12.5,1-25.1,2.2-37.6,3.2c-8.7,0.7-17.4,1.2-26.1,1.9c-3.8,0.3-7.7,0.8-11.5,1.1c-3,0.3-4.8,1.7-6.2,4.4  c-5.9,11.1-12,22.1-18.2,33.2c-3.3,5.9-6.6,11.7-10,17.5c-1.8,3-4.2,3.7-6.9,2.4c-2.7-1.3-3.7-3.3-2.6-6.4c0.9-2.4,2.2-4.7,3.4-6.9  c6.8-12.1,13.7-24.2,20.4-36.3c0.8-1.4,1.3-3,2.2-5.2c-2.3-0.1-3.8-0.4-5.3-0.2c-9.9,1.6-19.8,2.9-29.6,5.1  c-19.4,4.2-37.2,12.2-52.8,24.7c-8,6.4-14.1,14.2-17.2,24.1c-3.1,9.9-0.8,18.5,6.5,25.6c3.5,3.4,7.9,6.3,12.2,8.6  c10.4,5.5,21.9,7.4,33.5,8.6c13.9,1.5,27.8,0.7,41.6-1c17.8-2.1,35.3-5.4,52.7-9.8c49.8-12.5,97.4-30.9,142.6-55.3  c26.1-14.1,51.1-30,74.8-48C378.5,419.5,379.9,418,381.5,416.6z M525.2,378.5c0.9,0,1.4,0,1.8-0.1c0.7-0.2,1.3-0.5,2-0.9  c12.1-6.2,24-12.9,34.7-21.4c6-4.8,11.7-10.1,17.2-15.5c3-2.9,5-6.6,5.9-10.8c1-4.8-0.8-8.2-5.5-9.7c-5.3-1.7-10.8-1.5-16.1-0.4  c-13.9,2.7-24.1,10.8-31.6,22.5c-6.7,10.3-8.5,22-8.9,34C524.6,377,525,377.7,525.2,378.5z"></path>	<path class="st1" d="M0,609.2c2.1,0,3.8,0,5.5,0c1.7,0,3.4,0,5.3,0c6.4,20,12.8,39.6,19.1,59.3c0.3,0,0.7,0,1,0  c0.5-1.3,1.1-2.5,1.5-3.8c5.5-17,11-34,16.5-51.1c1.4-4.4,1.4-4.4,5.9-4.4c2,0,4,0,6.3,0c0,23.5,0,46.5,0,70  c-1.4,0.1-2.9,0.1-4.7,0.2c-0.1-2.3-0.4-4.3-0.4-6.3c0-17.5,0.1-35,0.1-52.4c0-1.7-0.3-3.5-0.4-5.5c-2.3,0.8-2.4,2.4-2.8,3.7  c-4.3,13.2-8.6,26.4-12.9,39.6c-1.9,5.7-3.7,11.4-5.6,17.1c-0.6,1.8-0.9,3.9-3.7,3.9c-3.1,0.1-3.3-2.2-4-4.1  c-6.1-18.6-12.1-37.3-18.1-56c-0.5-1.4-1.1-2.8-1.6-4.1c-0.3,0-0.6,0.1-0.9,0.1c-0.3,0.7-0.8,1.4-0.8,2.1c-0.1,2.7-0.1,5.4-0.1,8.2  c0,16.3,0,32.7-0.1,49c0,1.4,0,2.8,0,4.6c-1.8,0-3.3,0-5,0C0,656,0,633,0,609.2z"></path>	<path class="st1" d="M873,609.1c10.2,0.5,20.1-1,29.8,1.7c11.3,3.2,17.3,11.2,19.3,22.4c1.4,7.8,1.2,15.7-0.6,23.5  c-3.1,13.2-12.5,21.4-26,22.4c-6.8,0.5-13.7,0.3-20.6,0.4c-0.5,0-1.1-0.2-1.8-0.4C873,656,873,633,873,609.1z M878.8,674.4  c6.4,0.2,12.4,0.4,18.4-0.7c9.7-1.8,15.8-7.6,18.1-17.2c2.1-8.9,2-17.9-0.5-26.7c-2.2-7.9-7.4-13.1-15.4-14.3  c-6.2-1-12.5-0.9-18.8-1.1c-0.6,0-1.2,0.5-1.8,0.8C878.8,634.8,878.8,654.2,878.8,674.4z"></path>	<path class="st1" d="M417.2,679.3c-2.1,0-3.5,0-5.2,0c0-16.8,0-33.4,0-50.2c1.5,0,2.9,0,4.6,0c0.2,2.3,0.4,4.4,0.7,7.4  c1.4-1.1,2.4-1.7,3.2-2.5c2.8-2.5,5.9-4.6,9.6-5.6c6.4-1.7,11.2,0.2,14.8,5.7c0.5,0.7,0.9,1.4,1.7,2.6c1.3-1.1,2.5-2,3.6-3  c3.2-2.8,6.6-5,10.9-5.7c7.5-1.2,12.6,2.2,14.3,9.5c0.4,1.7,0.6,3.4,0.6,5.1c0.1,11.3,0.1,22.6,0,33.9c0,0.7-0.1,1.4-0.2,2.4  c-1.6,0-3.1,0-4.9,0c-0.1-1.6-0.3-3.1-0.3-4.7c0-8.9,0-17.8,0-26.6c0-2.6-0.1-5.2-0.4-7.7c-0.8-5.6-4.3-8.2-10-7.5  c-3.2,0.4-5.9,2.1-8.4,4.1c-3.6,2.8-5.5,6.1-5.3,11c0.4,9.1,0.1,18.3,0.1,27.5c0,1.1,0,2.3,0,4c-1.8,0.1-3.4,0.2-5.5,0.3  c0-2,0-3.6,0-5.1c0-10.2,0-20.3-0.1-30.5c0-2-0.3-4-0.8-5.9c-1-3.5-3.2-5.2-6.9-5.4c-4-0.3-7.2,1.3-10.3,3.6c-4,3-6.2,6.6-6,12  c0.4,8.7,0.1,17.5,0.1,26.2C417.2,675.9,417.2,677.5,417.2,679.3z"></path>	<path class="st1" d="M375,679.3c-1.8,0-3.3,0-5.2,0c0-1.8,0-3.4,0-4.9c0-9.3,0.1-18.6-0.1-27.9c0-2.8-0.3-5.7-0.9-8.5  c-0.9-3.5-3.2-5.1-6.9-5.4c-4.1-0.3-7.5,1.5-10.6,4c-3.6,2.9-5.8,6.1-5.5,11.3c0.5,8.9,0.1,17.7,0,26.6c0,1.5-0.1,3.1-0.2,4.8  c-1.9,0-3.3,0-5.2,0c0-1.9,0-3.4,0-5c0-9.9,0-19.8-0.1-29.6c0-2-0.2-4-0.7-5.9c-1-4.2-3.4-6-7.6-6.1c-5.1-0.1-13.1,4.8-15,9.4  c-0.6,1.4-0.5,3.1-0.6,4.6c-0.1,9.2-0.1,18.3-0.1,27.5c0,1.6,0,3.1,0,5c-1.8,0-3.3,0-5,0c0-16.7,0-33.2,0-50c1.5,0,2.8,0,4.4,0  c0.2,2.3,0.4,4.5,0.7,7.4c1.4-1.1,2.4-1.8,3.3-2.6c2.9-2.6,6.1-4.7,10-5.6c6.3-1.5,10.9,0.4,14.3,5.9c0.4,0.7,0.9,1.4,1.7,2.6  c1.3-1.1,2.5-2,3.6-3c3.2-2.8,6.7-5,10.9-5.7c7.4-1.3,12.7,2.2,14.3,9.5c0.4,1.7,0.6,3.4,0.7,5.1c0.1,11.5,0,22.9,0,34.4  C375.3,677.6,375.1,678.2,375,679.3z"></path>	<path class="st1" d="M718.3,609.4c2.8,0,5.3,0,8.2,0c7.3,23.3,14.5,46.4,21.9,70c-2.4,0-4,0-6,0c-1.8-5.7-3.5-11.5-5.3-17.2  c-2-6.3-0.4-6-8.1-6c-5.4,0-10.9,0-16.3,0c-3.8,0-3.9,0.1-5,3.8c-1.5,5.1-3.1,10.1-4.6,15.2c-0.4,1.3-0.9,2.7-1.5,4.1  c-1.7,0-3.2,0-4.7,0C696.8,676.2,715.3,616.3,718.3,609.4z M733.6,650.9c-3.8-12.7-7.1-24.6-11.5-36.4c-4.3,12-8,24-11.5,36.4  C718.5,650.9,725.7,650.9,733.6,650.9z"></path>	<path class="st1" d="M610.8,635.5c0.6-9.1,0-17.5,0.5-25.9c1.8,0,3.1,0,4.8,0c0,23.3,0,46.3,0,69.7c-1,0.1-2.2,0.1-3.5,0.2  c-0.7-2.2-1.2-4.1-2-6.4c-1.1,0.7-1.9,1.4-2.8,1.9c-2.3,1.4-4.4,3.2-6.9,4.2c-8.1,3.2-16,0.4-20.2-7.2c-1.5-2.8-2.6-6.1-3.2-9.2  c-1.3-6.7-1.2-13.4,0.5-20c0.5-1.9,1.3-3.8,2.2-5.6c5-9.4,15.5-12.1,24.5-6.2c1,0.6,1.8,1.4,2.7,2.1  C608.3,633.6,609.2,634.3,610.8,635.5z M611.1,654.6C611.1,654.6,611.1,654.6,611.1,654.6c0-3.3,0.1-6.6,0-9.9  c0-1.2-0.3-2.7-0.9-3.6c-2.4-3.4-5.4-6.3-9.3-8c-6.4-2.7-12.4-0.5-15.6,5.6c-0.7,1.3-1.2,2.6-1.6,4c-2,7.3-2.1,14.7-0.1,22  c0.7,2.4,1.9,4.8,3.3,6.9c1.6,2.5,4.1,3.9,7.2,4.3c4.6,0.6,8.4-1,11.8-4c3.3-2.9,6.3-5.9,5.5-10.9  C610.8,658.9,611.1,656.7,611.1,654.6z"></path>	<path class="st1" d="M1176,646.3c1.3-6.9,0.2-10.2-3.8-12.5c-4.7-2.7-12.1-2-16.1,1.7c-1.5,1.3-2.7,2.9-4.1,4.5  c-1.2-0.6-2.3-1.2-3.5-1.9c1.2-3.8,3.8-6.2,7-7.9c6-3.2,12.4-3.5,18.7-0.8c5.2,2.2,8,6.2,8,12.1c0,8.2,0,16.3,0,24.5  c0,4.3,0,8.5,0,13.1c-1.2,0-2.7,0-4.4,0c-0.5-1.9-1-3.8-1.6-6.1c-1.5,1-2.6,1.8-3.8,2.7c-3.4,2.5-7.2,4.1-11.4,4.6  c-5.7,0.6-10.6-0.7-13.8-5.9c-3-4.9-2.5-12,1.1-16.6c2.2-2.9,5.2-5,8.7-6.1c4.7-1.6,9.6-2.9,14.4-4.3  C1172.8,646.9,1174.3,646.7,1176,646.3z M1176.4,650.7c-7.1,1.5-13.4,2.9-19.1,6c-1.6,0.9-3.1,2.1-4.3,3.5c-2.7,3.1-3,8.7-0.9,12.1  c2,3.3,5.4,4.6,10.2,3.7c5.5-1,9.5-4.4,13.3-8.2c0.5-0.5,0.8-1.3,0.8-1.9C1176.4,661,1176.4,656.2,1176.4,650.7z"></path>	<path class="st1" d="M244.8,640.1c-1.2-0.7-2.3-1.3-3.5-2.1c1.7-4.3,4.8-7,8.7-8.6c5.1-2.1,10.3-2.3,15.5-0.6  c6.2,2,9.3,6.3,9.4,12.8c0.1,6.3,0,12.6,0,18.9c0,6,0,12,0,18.2c-3.7,1.5-3.7,1.5-6.1-5.4c-1.2,0.8-2.3,1.6-3.4,2.4  c-3.4,2.4-7.2,4.1-11.4,4.6c-6.1,0.8-11.5-1.6-14.1-6.1c-2.8-5-2.3-12.1,1.5-16.5c1.7-2,4-3.9,6.4-4.9c5.3-2.1,10.8-3.6,16.2-5.4  c1.9-0.6,4.9,0.2,5.4-2.5c0.7-3.2,0.5-6.6-2-9.3c-1-1-2.2-1.8-3.5-2.4c-5.5-2.4-12.1-0.9-16.1,3.5  C246.8,637.8,245.9,638.9,244.8,640.1z M269.5,650.6c-7.5,1.7-14.2,3.1-20.2,6.7c-1.3,0.8-2.5,1.9-3.5,3.1  c-2.5,3.1-2.8,8.4-0.8,11.8c1.9,3.3,5.4,4.7,10.1,3.8c5.5-1,9.6-4.4,13.3-8.2c0.6-0.6,1-1.5,1-2.3  C269.5,660.9,269.5,656.2,269.5,650.6z"></path>	<path class="st1" d="M515.1,640.1c-1.3-0.7-2.4-1.4-3.6-2.1c1.7-4.3,4.8-7,8.7-8.6c5.1-2.1,10.3-2.3,15.5-0.6  c6.1,2,9.4,6.3,9.4,12.8c0.1,8,0,16,0,24c0,4.3,0,8.6,0,13.4c-1.1,0.1-2.5,0.2-4.2,0.3c-0.6-2.1-1.1-4-1.7-6.3  c-1.4,1-2.5,1.7-3.7,2.5c-3.4,2.5-7.2,4.1-11.4,4.6c-6.2,0.7-11.5-1.5-14.1-6.1c-2.8-4.9-2.1-12.1,1.4-16.6  c2.2-2.8,5.1-4.7,8.3-5.8c5.1-1.7,10.4-3.2,15.6-4.6c4.4-1.1,4.6-1.1,4.3-5.7c-0.2-4.7-2.7-7.8-7.3-8.8c-6-1.3-11.4-0.1-15.4,5  C516.6,638.4,516,639.1,515.1,640.1z M539.6,650.6c-7.8,1.8-15,3.2-21.3,7.4c-0.9,0.6-1.8,1.5-2.4,2.4c-2.5,3.7-2.8,7.7-0.7,11.7  c1.8,3.3,5.4,4.6,10.1,3.8c5.6-1,9.8-4.5,13.6-8.4c0.4-0.4,0.7-1,0.7-1.5C539.8,661.1,539.9,656.2,539.6,650.6z"></path>	<path class="st1" d="M169.1,609.6c1.8,0,3.2,0,5,0c0,8.8,0,17.4,0,26.9c1.7-1.2,2.8-1.8,3.7-2.5c3.4-2.7,7-4.9,11.4-5.8  c9.6-1.9,16.2,2.9,16.7,12.8c0.4,7.9,0.1,15.7,0.2,23.6c0,4.7,0,9.4,0,14.5c-1.8,0-3.2,0-5,0c-0.1-1.8-0.3-3.5-0.3-5.2  c0-8.3,0-16.6,0-24.9c0-2.7-0.1-5.4-0.5-8.1c-0.7-5.9-4-8.6-9.9-8.3c-6.7,0.4-11.4,4.2-15.3,9.2c-0.8,1-0.7,2.7-0.7,4.1  c-0.1,9.4,0,18.9,0,28.3c0,1.6,0,3.1,0,5c-1.8,0-3.3,0-5,0C169.1,656,169.1,633,169.1,609.6z"></path>	<path class="st1" d="M993.1,654.1c0.1,5.7-0.7,11.1-3.6,16.2c-3.9,6.9-9.8,10.2-17.6,10.1c-7.8-0.1-13.5-3.8-16.8-10.7  c-4.7-10-4.7-20.3-0.4-30.4c3.3-7.7,9.6-11.5,18.1-11.4c8.5,0.1,14.3,4.4,17.7,12C992.6,644.4,993.1,649.2,993.1,654.1z   M956.7,654.1c0.9,4.2,1.3,8.5,2.7,12.5c2.3,6.4,7.1,9.6,13.3,9.5c5.9-0.1,10.5-3.3,12.8-9.6c3-8.2,3-16.5,0-24.7  c-2.3-6.2-6.9-9.4-12.9-9.4c-6.2-0.1-11.1,3.1-13.3,9.5C958,645.7,957.6,649.8,956.7,654.1z"></path>	<path class="st1" d="M137.2,654.3c-0.9,4.3-1.4,8.8-2.8,12.9c-3,8.7-10.2,13.4-19.1,13.1c-7.6-0.2-13.3-3.7-16.5-10.4  c-4.8-10.1-5-20.5-0.5-30.7c3.4-7.7,9.7-11.5,18.1-11.3c8.3,0.1,14,4.3,17.5,11.7C136.1,644.2,136.6,649.2,137.2,654.3z   M100.2,653.9c0.5,4.6,1,9,2.8,13.1c2.6,5.7,6.8,9.1,13.3,9c6.4-0.1,10.4-3.6,12.6-9.3c3.2-8.3,3.3-16.8,0.1-25.1  c-2.3-6.2-6.9-9.3-13-9.3c-6,0-10.9,3.1-13,9.2C101.5,645.5,101.1,649.8,100.2,653.9z"></path>	<path class="st1" d="M1266.4,693.8c1.5,0,3.1,0.1,4.6,0c4.2-0.2,7.4-2.2,9.3-5.9c2.1-4.2,3-8.3,1.2-13.1  c-5.1-13.5-9.6-27.2-14.4-40.9c-0.5-1.5-0.9-2.9-1.5-4.8c2,0,3.5,0,5.2,0c4.9,14.1,9.8,28.1,14.6,42.2c0.3,0,0.6,0.1,0.9,0.1  c2.3-4.3,3.4-9.1,5-13.6c1.7-4.7,3.2-9.5,4.9-14.2c1.6-4.7,3.3-9.5,5-14.4c1.6,0,3,0,4.8,0c-0.4,1.6-0.7,2.8-1.1,4  c-5.9,17-11.9,34.1-17.9,51.1c-0.8,2.3-1.8,4.5-3,6.6c-3.3,5.8-9.8,8.5-16.2,6.9C1266.2,697.3,1266.2,697.3,1266.4,693.8z"></path>	<path class="st1" d="M1019.6,670.5c1.3-1,2.4-1.9,4.3-3.4c0.9,1.3,1.5,2.6,2.5,3.6c3.4,3.3,7.4,5.3,12.2,5.5c3,0.1,5.7-0.6,8-2.6  c4.4-3.8,4.3-9.8-0.4-13.2c-2.4-1.7-5.2-2.9-7.9-4.2c-3.5-1.6-7.1-3-10.6-4.6c-4.5-2.2-7.1-5.8-6.8-10.9c0.2-5.4,3.1-9.1,7.9-11.3  c8.9-4,19.7-0.7,24.5,7.5c-0.9,0.8-1.9,1.6-3.1,2.6c-1.1-1.1-2-2-3-3c-3-2.9-6.7-4.4-10.9-4.4c-2.6,0-5.1,0.6-7.1,2.5  c-3.6,3.3-3.7,8.1,0.2,11.1c2.2,1.7,4.9,2.9,7.5,4.1c3.6,1.7,7.4,3,11,4.7c5.2,2.4,8,6.4,7.6,12.3c-0.4,5.9-3.7,9.8-8.9,12  C1037.1,682.9,1025.9,679.5,1019.6,670.5z"></path>	<path class="st1" d="M1115.6,636.9c-1.1,0.8-2.2,1.6-3.7,2.8c-1.1-1.3-2-2.7-3.2-3.7c-3.8-3.3-8.2-4.6-13.2-3.6  c-3.5,0.7-5.8,2.8-6.6,6.5c-0.8,3.7,1.1,6.1,3.9,7.8c2.3,1.4,4.8,2.5,7.3,3.6c3.5,1.6,7.1,3,10.6,4.7c4.7,2.3,7,6.1,6.9,11.4  c-0.1,5.4-2.6,9.4-7.4,11.7c-7.5,3.7-15,3.2-22.1-1.1c-2.4-1.5-4.3-3.7-6.8-5.9c1.5-1.3,2.7-2.3,4-3.4c1.2,1.2,2.2,2.1,3.2,3.1  c3.4,3.3,7.4,5.4,12.2,5.5c3.1,0.1,6-0.6,8.3-2.8c4-3.7,4-9.4-0.3-12.7c-2.5-1.9-5.4-3.2-8.2-4.5c-3.6-1.7-7.4-3.1-11-4.8  c-4.4-2.1-6.6-5.7-6.4-10.7c0.1-5.1,2.6-8.7,7-10.9C1098.9,625.2,1110.1,628.3,1115.6,636.9z"></path>	<path class="st0" d="M1286.4,576.6c-7.9,0-11.2-4.2-9.7-10.2c1.8-6.9,8.8-12.8,17.3-13.2c4.7-0.2,7.9,3.1,7.6,7.8  c-0.1,2.1-0.6,4.3-1.6,6.1C1296.8,573.1,1291.5,576.1,1286.4,576.6z"></path>	<path class="st1" d="M780.3,609.5c1.4,0,2.7,0,3.9,0c0.9,3.1,1.2,63.7,0.4,69.8c-1.3,0.1-2.7,0.2-4,0.3  C779.6,676.4,779.4,615.7,780.3,609.5z"></path>	<path class="st1" d="M1218.7,629c1.8,0,3.1,0,4.8,0c0.3,2.7,0.5,5.2,0.8,8.3c2.4-2.6,4.2-4.9,6.4-6.8c2.2-1.9,5-2.7,8.4-2.4  c0.1,1.4,0.2,2.7,0.3,4.1c-0.8,0.3-1.3,0.6-1.8,0.7c-8.4,2-13.5,8-13.7,16.8c-0.1,8.1,0,16.3,0,24.5c0,1.5,0,3.1,0,5  c-1.9,0-3.4,0-5.2,0C1218.7,662.6,1218.7,646,1218.7,629z"></path></g></svg>